<?xml version="1.0" encoding="utf-8"?>
<!-- Generator: Adobe Illustrator 23.0.3, SVG Export Plug-In . SVG Version: 6.00 Build 0)  -->
<svg version="1.1" id="Layer_1" xmlns="http://www.w3.org/2000/svg" xmlns:xlink="http://www.w3.org/1999/xlink" x="0px" y="0px"
	 viewBox="0 0 198.4 70.9" style="enable-background:new 0 0 198.4 70.9;" xml:space="preserve">
<g>
	<path d="M36.4,16.2c5.3,0,8.9,1.5,10.6,4.3c0.5,0.8,0.7,1.9,0.7,3.5c0,3.2-2,5.7-6,7.5c-1.3,0.8-4.4,1.9-9.4,3.1l-1,0.2V35
		c2.2,0,3.8,0.9,4.5,2.6l0.1,1.2c0,2-2,4.1-6.1,6.4c-2.2,0.9-3.9,1.4-5.4,1.4c-2.4-0.4-3.5-1.4-3.5-2.7c0-2.1,2.7-3.6,8.1-4.7h1.1
		l0.2,0.2l-4.3,1.4c-2.3,1-3.4,1.8-3.4,2.5v0.1c0.1,0.2,0.3,0.3,0.6,0.3h0.1c3,0,6.1-1.2,9.3-3.5c1-1,1.5-1.8,1.5-2.5v-0.1
		c0-1.1-2-1.6-6.1-1.6h-0.5c-0.5,0-0.8-0.3-0.8-0.9c0-0.4,0.8-0.8,2.5-1.1c2.2-0.7,4.1-1.5,5.9-2.3c1.8-0.8,3.3-1.6,4.7-2.4
		c3.6-2.2,5.6-4.1,5.9-5.8c0-2.1-2.3-3.4-6.9-4l-2.2-0.1h-0.3c-7.1,0-13.7,2.3-19.6,6.9c-1.5,1.4-2.2,2.8-2.2,4.1
		c0,0.5,0.3,1.3,1,2.5v0.2l-0.2,0.2c-1.4-0.5-2.6-1.8-3.4-3.7l-0.2-1.2v-0.1c0-3.5,3.9-6.8,11.7-9.8C27.8,17,32.1,16.2,36.4,16.2z
		 M33.9,26.5c0.3,0.1,0.4,0.2,0.4,0.3v0.1c0,0.5-0.5,0.9-1.5,1.1c-1,0.5-2.1,1.2-3.3,2.2c-1.2,1-2.6,2.2-4.1,3.8
		c-2,2.2-2.9,4.1-2.9,5.8c0,0.3,0.2,0.6,0.6,1c-0.5,0.3-1,0.4-1.3,0.4c-1.3,0-2-0.8-2.3-2.5v-0.1c0-3.3,3.7-6.9,11-11
		C31.9,26.8,33.1,26.5,33.9,26.5z"/>
	<path d="M46.7,29.1c1.4-0.1,2.2,0.6,2.5,2c0,0.5-1.5,2.4-4.5,5.8l-1,1.4l0.3-0.3c4-3.7,6.8-6,8.5-6.8c0.6,0,1.3,0.6,1.9,1.8V33
		c0,0.4-0.6,1.2-1.9,2.4c-0.6,0.8-0.9,1.6-0.9,2.5l0.3,0.7l-0.1,0.1h-0.3c-1,0-1.6-0.8-1.9-2.3V36c0-0.7,0.2-1.4,0.5-2.2
		c-7.8,6.5-11.7,10.8-11.7,12.8h-0.1c-0.8,0-1.3-0.6-1.4-1.8c0-1.6,1.6-4.5,4.7-8.7c0.3-0.4,0.7-1,1.3-1.9c0.6-0.9,1.5-2,2.5-3.4
		h-0.1l-3.6,2.2c-0.3,0.2-0.5,0.2-0.6,0.1c-0.1-0.1,0-0.3,0.2-0.5c0.5-0.6,2.1-1.7,4.8-3.3L46.7,29.1z"/>
	<path d="M64.5,29.1c1.1,0,2.2,1.2,3.5,3.5l0.1,0.1v0.1c0,1.9-2.1,3.7-6.2,5.3c-1.1,0.3-2,0.5-2.7,0.5c-0.9-0.1-1.3-0.3-1.3-0.5
		c0.2-0.2,0.9-0.4,2.3-0.7c3.3-2,5.2-3.9,5.6-5.6h-0.1c-2,0.4-4.9,2.2-8.5,5.5c-2.1,2.4-3.2,4.3-3.2,5.8c0.2,1,0.6,1.5,1.4,1.5
		c1.7-0.1,4.5-1.8,8.4-4.9l0.1-0.1H64l0.1,0.1v0.1c-0.6,1.6-2.7,3.7-6.4,6.3c-0.8,0.4-1.4,0.6-1.8,0.6c-1.6,0-3-1.1-3.9-3.4
		l-0.3-1.2c0-3.4,2.9-7.2,8.8-11.3C62.4,29.7,63.7,29.1,64.5,29.1z"/>
	<path d="M76.5,25.6c5.5-5.4,9-8.1,10.6-8.1c1.9,0.8,2.9,1.8,2.9,3.1v0.2c0,2.1-4.3,6.8-12.9,14.3c-2.5,1.8-4.2,2.8-5.2,2.9
		l-0.4-0.3c2-1.3,4.8-3.7,8.4-7.2c4.6-4.8,7.2-8,7.9-9.5V21c-1.2,0.6-2.5,1.6-4.1,3c-1.6,1.3-3.4,3-5.5,5c-2.4,2.5-4.3,4.7-5.7,6.5
		c-1.4,1.8-2.4,3.4-3,4.6c-0.9,1.8-1.3,3.1-1.3,4c0,0.4,0.3,0.5,0.7,0.4c1,0,3.3-1.6,6.9-4.9c2.3-2.1,3.7-3.1,4.1-3.1l0.1,0.1v0.1
		c-0.5,0.8-1.5,1.9-2.8,3.3c-1.3,1.4-3.1,3.1-5.2,5.2c-1.4,1.1-2.4,1.6-3,1.6h-0.1c-1.7-0.1-2.7-1-3-2.8c-0.1-0.5-0.1-1.2,0.1-2
		C66.6,38,70.1,32.5,76.5,25.6z"/>
	<path d="M96.2,15.8c2.2,1,3.3,2.1,3.3,3.5c0,1.3-1.7,3.5-5.2,6.6c-6,5.9-9.4,9.7-10.4,11.4c5.8-5.4,9.7-8,11.7-8
		c1.9,0.7,2.8,1.6,2.8,2.9v0.3c0,2-2,4.2-6,6.6c-2.2,1.1-3.7,1.6-4.3,1.6c0,1.4,0.9,3.3,2.8,5.6c0.2,0.3,0.5,0.4,0.9,0.5
		c0.2,0.1,0.2,0.2,0.1,0.4c-0.1,0.1-0.4,0.2-1,0.2h-0.1c-1.7,0-3.6-1.5-5.5-4.5c-0.5-0.8-0.8-1.7-0.8-2.6c3.1-1.1,5.6-2.7,7.6-4.7
		c1.9-2,2.8-3.5,2.8-4.7h-0.1c-1.3,0-5.6,3.3-12.9,10c-2.3,2.4-3.5,4.4-3.5,5.9c0.4,0.1,0.5,0.3,0.3,0.4c-1.6,0-2.5-0.8-2.8-2.4
		c0-1.9,3.8-7.5,11.4-16.6c1.9-2.3,3.6-4.4,5-6.2c1.4-1.8,2.6-3.4,3.6-4.8c0.2-0.4,0.2-0.8,0-1.4C95.8,15.8,95.9,15.7,96.2,15.8z"/>
	<path d="M109,28.4c1,0,2.1,1,3.6,3.1c0.2,0.5,0.1,0.7-0.3,0.6c-0.8-0.5-1.5-0.7-2-0.7c-2.9,0-6.3,2.1-10.1,6.4
		c-1.5,2.1-2.3,3.9-2.3,5.4v0.3c0,0.7,0.5,1.1,1.5,1.2c2.3,0,5.4-2.6,9.1-7.8c0.7-1.2,1.1-2.4,1.1-3.4c0-0.2-0.3-0.5-0.8-0.8v-0.1
		c0-0.2,0.2-0.3,0.5-0.4c0.3-0.1,0.7-0.1,1.1-0.1c1.2,0.1,1.9,0.9,2,2.4c0.3,3.1-2.1,6.5-7.2,10.2c-2.1,1.3-3.8,1.9-5,1.9h-0.3
		c-1.8,0.1-3-0.3-3.6-1.2c-0.6-0.9-0.9-1.9-0.8-3.2v-0.4c0-3.3,2.2-6.8,6.7-10.5C104.7,29.4,107,28.4,109,28.4z"/>
	<path d="M129.6,27.6c1.7,0.1,2.5,1,2.4,2.5c-0.8,4.3-5.9,9.6-15.1,15.9l-1.4,0.6h-0.1c-1.8-0.3-2.9-1.4-3.4-3.4V43
		c0-3.2,2-7.1,6-11.8h-0.1c-1.4,0.7-2.2,1-2.5,1l-0.1-0.1v-0.1c1.3-1.2,2.9-2.1,4.7-2.9c1.8,0.6,2.8,1.4,2.8,2.2v0.1
		c-4.9,5.3-7.5,9.5-7.7,12.5v0.6c3.2-1.4,6.9-4.8,11.1-10.1c1.5-2.3,2.3-4,2.3-5.2v-0.2c-0.1-0.3-0.3-0.4-0.7-0.4l0.1-0.1
		C128.1,27.9,128.7,27.6,129.6,27.6z"/>
	<path d="M141.5,29c0.9,0,1.7,0.8,2.7,2.5c0.5,0.4,0.7,0.8,0.7,1.4V33c0,1.5-1.4,3.1-4.3,4.9c-0.9,0.5-1.7,0.7-2.4,0.7
		c-0.1,0-0.2,0-0.2-0.1c0-0.1,0-0.1,0.1-0.2c3.5-2.8,5.2-4.8,5.2-5.9c-0.1-0.2-0.3-0.3-0.7-0.2c-2.9,0-5.7,1.5-8.2,4.4
		c-0.9,1.4-1.3,2.7-1.3,4v0.7l0.5,4.2c0,0.9-0.4,1.3-1.3,1.3c-1.7,0-3.4-1.1-5.1-3.2c-0.7-1.1-1-2-0.9-2.8c0-0.3,0.1-0.5,0.2-0.5
		c0.1-0.1,0.2,0,0.3,0.1l1.2,2.2c0.8,1.2,2,1.9,3.7,2c0.2,0,0.2,0,0.3-0.1c0-0.1,0-0.2-0.1-0.3c-0.7-2.1-1-3.7-1-4.9
		c0-4.4,2.8-7.6,8.4-9.7C139.8,29.2,140.6,29,141.5,29z"/>
	<path d="M160.1,15.8c2.2,1,3.3,2.1,3.3,3.5c0,1.3-1.7,3.5-5.2,6.6c-6,5.9-9.4,9.7-10.4,11.4c5.8-5.4,9.7-8,11.7-8
		c1.9,0.7,2.8,1.6,2.8,2.9v0.3c0,2-2,4.2-6,6.6c-2.2,1.1-3.7,1.6-4.3,1.6c0,1.4,0.9,3.3,2.8,5.6c0.2,0.3,0.5,0.4,0.9,0.5
		c0.2,0.1,0.2,0.2,0.1,0.4c-0.1,0.1-0.4,0.2-1,0.2h-0.1c-1.7,0-3.6-1.5-5.5-4.5c-0.5-0.8-0.8-1.7-0.8-2.6c3.1-1.1,5.6-2.7,7.6-4.7
		c1.9-2,2.8-3.5,2.8-4.7h-0.1c-1.3,0-5.6,3.3-12.9,10c-2.3,2.4-3.5,4.4-3.5,5.9c0.4,0.1,0.5,0.3,0.3,0.4c-1.6,0-2.5-0.8-2.8-2.4
		c0-1.9,3.8-7.5,11.4-16.6c1.9-2.3,3.6-4.4,5-6.2c1.4-1.8,2.6-3.4,3.6-4.8c0.2-0.4,0.2-0.8,0-1.4C159.8,15.8,159.9,15.7,160.1,15.8z
		"/>
	<path d="M167.4,29h0.5c1,0,1.8,0.7,2.6,2.2l0.1,0.3c0,0.4-1.4,2.1-4.1,5c-4,4.5-6,7.8-6,9.7l0.2,0.2v0.2c-1.7,0-2.6-0.7-2.6-2.2
		c0-2.3,3.1-7.1,9.3-14.6l0.2-0.6L167.4,29z M174.9,20.4c0.6,0,1.3,0.6,2.1,1.7v0.1c-0.3,1.1-2.2,2.8-5.7,5.1l-1,0.5l-0.1-0.1v-0.1
		c1-2.6,2.4-5,4.3-7.1H174.9z"/>
	<path d="M176.5,29.1c1,0,1.9,0.7,2.8,2.1v0.4c0,0.5-0.8,1.3-2.5,2.5c-3,2.7-5,5-6.1,7c-0.9,1.7-1.4,2.8-1.4,3.1h0.1
		c1.1,0,5.4-3.5,13.1-10.5l0.4-0.1c1.6,0.4,2.4,1,2.4,1.9c-0.3,0.8-0.8,2-1.5,3.5c-0.7,1.5-1.5,3.3-2.5,5.4h0.1
		c0.4,0.1,0.6,0.2,0.6,0.3c0,0.3-0.5,0.6-1.4,0.8c-5.8,9.5-10.7,14.2-14.7,14.2c-1.6-0.2-2.4-0.9-2.4-2.2c0-2.7,3.2-6.3,9.6-10.8
		c0.7-0.4,1.4-0.8,2.2-1.2c0.8-0.4,1.6-0.7,2.4-1l3.6-8.4c-6.7,6.8-10.8,10.3-12.1,10.3c-1.3,0-2.1-0.8-2.4-2.5v-0.4
		c0-3.3,2.7-7.6,8.2-12.9c0.6-0.5,1-1.1,1.3-1.7H176.5z M165.5,57.8c0,0.1,0.1,0.2,0.2,0.2c1.4,0,3.8-1.9,7.2-5.7
		c0.6-0.8,1.3-1.6,2-2.6c0.7-1,1.4-2.1,2.2-3.4v-0.1c-2.4,1-5.5,3.4-9.4,7.2C166.2,55.2,165.5,56.7,165.5,57.8z"/>
</g>
<text transform="matrix(1 0 0 1 233.6881 44.7665)" style="display:none; font-family:'AlpineScript'; font-size:32px;">Brelkovskiy</text>
<text transform="matrix(1 0 0 1 283.5245 87.322)" style="display:none; font-family:'Comfortaa-Bold'; font-size:14px;">made by</text>
</svg>
